<?xml version="1.0" standalone="no"?>
<!DOCTYPE svg PUBLIC "-//W3C//DTD SVG 20010904//EN"
 "http://www.w3.org/TR/2001/REC-SVG-20010904/DTD/svg10.dtd">
<svg version="1.0" xmlns="http://www.w3.org/2000/svg"
 width="524.000000pt" height="468.000000pt" viewBox="0 0 524.000000 468.000000"
 preserveAspectRatio="xMidYMid meet">

<g transform="translate(0.000000,468.000000) scale(0.100000,-0.100000)"
fill="#000000" stroke="none">
<path d="M1481 3224 c-16 -12 -22 -23 -18 -40 2 -13 0 -21 -4 -18 -5 3 -9
-278 -9 -625 0 -346 -3 -636 -6 -644 -4 -13 -12 -12 -55 4 -63 24 -206 35
-281 21 -82 -16 -163 -57 -219 -112 -37 -37 -45 -50 -36 -59 9 -10 9 -12 -2
-9 -27 6 -53 -58 -53 -130 1 -75 22 -148 41 -144 7 1 9 -2 6 -9 -15 -24 113
-130 173 -143 17 -4 32 -12 32 -18 0 -6 7 -7 16 -4 9 4 23 1 30 -5 34 -28 239
-13 304 23 53 28 80 51 73 61 -4 6 -1 7 6 2 15 -9 63 34 95 85 47 73 47 78 44
931 -3 777 -4 808 -22 828 -23 26 -81 28 -115 5z m-624 -1726 c-3 -8 -6 -5 -6
6 -1 11 2 17 5 13 3 -3 4 -12 1 -19z m709 -30 c4 -6 3 -8 -4 -4 -6 3 -13 2
-17 -4 -3 -5 -1 -10 6 -10 7 0 10 -3 6 -6 -3 -3 -11 -3 -17 1 -8 5 -8 11 1 21
14 17 16 17 25 2z m-619 -85 c-4 -3 -1 -13 6 -21 11 -13 9 -14 -10 -1 -16 9
-19 16 -10 21 15 9 23 10 14 1z"/>
<path d="M1803 3213 c-17 -25 -18 -82 -20 -863 -2 -722 -1 -839 12 -856 13
-17 16 -17 26 -4 9 12 10 11 6 -8 -5 -23 -4 -23 44 -19 50 5 77 24 80 57 0 8
2 381 4 829 3 856 2 868 -40 885 -9 3 -34 6 -56 6 -31 0 -42 -5 -56 -27z m21
-39 c3 -8 2 -12 -4 -9 -6 3 -10 10 -10 16 0 14 7 11 14 -7z"/>
<path d="M2883 3220 l-23 -21 0 -828 c0 -456 3 -843 6 -860 5 -22 12 -31 26
-31 12 0 16 -4 12 -11 -12 -19 97 -1 112 19 11 14 13 175 11 864 -2 833 -2
847 -22 865 -30 28 -95 29 -122 3z"/>
<path d="M2154 2875 l-29 -23 -3 -483 c-1 -266 0 -490 3 -499 4 -8 5 -15 3
-15 -2 0 6 -11 18 -23 32 -34 73 -42 117 -23 68 29 67 24 67 547 -1 454 -1
469 -21 501 -11 18 -25 31 -29 28 -5 -3 -11 -1 -15 4 -11 19 -82 9 -111 -14z
m63 -11 c-3 -3 -12 -4 -19 -1 -8 3 -5 6 6 6 11 1 17 -2 13 -5z m51 -7 c8 -10
6 -13 -7 -13 -11 0 -17 6 -14 13 3 7 6 13 8 13 1 0 7 -6 13 -13z"/>
<path d="M3251 2888 c-51 -19 -51 -18 -52 -541 0 -337 4 -493 11 -507 30 -57
152 -52 179 7 8 16 11 175 11 509 0 421 -2 485 -15 490 -8 4 -13 10 -10 15 3
4 -5 15 -18 24 -24 16 -69 17 -106 3z m34 -26 c-2 -9 -4 -18 -4 -20 -1 -2 -6
0 -11 3 -8 5 -8 11 -1 19 6 7 7 17 3 21 -4 5 -2 5 5 2 6 -4 10 -15 8 -25z"/>
<path d="M2556 2613 c-10 -3 -28 -14 -40 -25 -20 -18 -21 -29 -21 -240 l0
-220 33 -28 c33 -28 102 -40 102 -18 0 5 4 7 9 3 5 -3 19 7 31 22 20 26 21 35
18 246 l-3 219 -30 24 c-29 23 -57 28 -99 17z"/>
<path d="M3612 2604 c-12 -8 -22 -22 -22 -30 0 -8 -5 -12 -11 -9 -7 5 -9 -63
-7 -220 3 -227 3 -228 27 -243 13 -9 32 -17 42 -19 10 -2 22 -3 26 -4 4 -1 23
4 41 11 56 21 62 47 61 252 -1 101 -4 197 -8 213 -11 53 -101 83 -149 49z m74
-512 c-17 -16 -18 -16 -5 5 7 12 15 20 18 17 3 -2 -3 -12 -13 -22z"/>
</g>
</svg>
